<svg id="svg" version="1.1" width="400" height="400" viewBox="0 0 400 400" xmlns="http://www.w3.org/2000/svg" xmlns:xlink="http://www.w3.org/1999/xlink"><g id="svgg"><path id="path0" d="M75.106 162.500 L 75.000 175.000 62.500 175.106 L 50.000 175.211 50.000 200.000 L 50.000 224.789 62.500 224.894 L 75.000 225.000 75.106 237.500 L 75.211 250.000 187.600 250.000 L 299.989 250.000 300.094 237.500 L 300.200 225.000 312.500 224.894 L 324.800 224.788 324.800 200.000 L 324.800 175.212 312.500 175.106 L 300.200 175.000 300.094 162.500 L 299.989 150.000 187.600 150.000 L 75.211 150.000 75.106 162.500 M225.000 200.000 L 225.000 225.000 187.600 225.000 L 150.200 225.000 150.096 200.400 C 150.039 186.870,150.079 175.574,150.185 175.298 C 150.337 174.899,158.050 174.817,187.688 174.898 L 225.000 175.000 225.000 200.000 " stroke="none" fill="#fcfcfc" fill-rule="evenodd"></path><path id="path1" d="M74.894 162.294 L 74.800 174.789 62.300 174.900 L 49.800 175.012 62.313 175.106 C 72.078 175.179,74.868 175.089,75.019 174.696 C 75.125 174.419,75.162 168.704,75.100 161.996 L 74.988 149.800 74.894 162.294 M150.185 175.298 C 150.079 175.574,150.039 186.870,150.096 200.400 L 150.200 225.000 187.600 225.000 L 225.000 225.000 225.000 200.000 L 225.000 175.000 187.688 174.898 C 158.050 174.817,150.337 174.899,150.185 175.298 M312.500 175.100 L 324.800 175.212 324.800 200.000 L 324.800 224.788 312.500 224.900 L 300.200 225.012 312.700 225.106 L 325.200 225.200 325.200 200.000 L 325.200 174.800 312.700 174.894 L 300.200 174.988 312.500 175.100 M62.394 225.097 L 74.789 225.211 74.903 237.606 L 75.017 250.000 75.009 237.500 L 75.000 225.000 62.500 224.991 L 50.000 224.983 62.394 225.097 " stroke="none" fill="#040484" fill-rule="evenodd"></path><path id="path2" d="M174.800 12.400 L 174.800 24.800 162.200 24.800 L 149.600 24.800 149.600 37.200 L 149.600 49.600 137.200 49.600 L 124.800 49.600 124.800 62.400 L 124.800 75.200 149.800 75.200 L 174.800 75.200 174.800 100.000 L 174.800 124.800 124.800 124.800 L 74.800 124.800 74.800 137.200 L 74.800 149.600 62.200 149.600 L 49.600 149.600 49.600 162.200 L 49.600 174.800 37.200 174.800 L 24.800 174.800 24.800 200.000 L 24.800 225.200 37.200 225.200 L 49.600 225.200 49.600 237.800 L 49.600 250.400 62.200 250.400 L 74.800 250.400 74.800 262.800 L 74.800 275.200 124.800 275.200 L 174.800 275.200 174.800 300.000 L 174.800 324.800 149.800 324.800 L 124.800 324.800 124.800 337.600 L 124.800 350.400 137.200 350.400 L 149.600 350.400 149.600 362.800 L 149.600 375.200 162.200 375.200 L 174.800 375.200 174.800 387.600 L 174.800 400.000 187.600 400.000 L 200.400 400.000 200.400 387.600 L 200.400 375.200 212.800 375.200 L 225.200 375.200 225.200 362.800 L 225.200 350.400 237.800 350.400 L 250.400 350.400 250.400 337.600 L 250.400 324.800 225.400 324.800 L 200.400 324.800 200.400 300.000 L 200.400 275.200 250.400 275.200 L 300.400 275.200 300.400 262.800 L 300.400 250.400 312.800 250.400 L 325.200 250.400 325.200 237.800 L 325.200 225.200 337.800 225.200 L 350.400 225.200 350.400 200.000 L 350.400 174.800 337.800 174.800 L 325.200 174.800 325.200 162.200 L 325.200 149.600 312.800 149.600 L 300.400 149.600 300.400 137.200 L 300.400 124.800 250.400 124.800 L 200.400 124.800 200.400 100.000 L 200.400 75.200 225.400 75.200 L 250.400 75.200 250.400 62.400 L 250.400 49.600 237.800 49.600 L 225.200 49.600 225.200 37.200 L 225.200 24.800 212.800 24.800 L 200.400 24.800 200.400 12.400 L 200.400 0.000 187.600 0.000 L 174.800 0.000 174.800 12.400 M300.000 162.400 L 300.000 174.800 312.600 174.800 L 325.200 174.800 325.200 200.000 L 325.200 225.200 312.600 225.200 L 300.000 225.200 300.000 237.600 L 300.000 250.000 187.400 250.000 L 74.800 250.000 74.800 237.600 L 74.800 225.200 62.400 225.200 L 50.000 225.200 50.000 200.000 L 50.000 174.800 62.400 174.800 L 74.800 174.800 74.800 162.400 L 74.800 150.000 187.400 150.000 L 300.000 150.000 300.000 162.400 " stroke="none" fill="#040404" fill-rule="evenodd"></path></g></svg>